<?xml version="1.0" encoding="UTF-8"?>
<svg id="Layer_1" data-name="Layer 1" xmlns="http://www.w3.org/2000/svg" viewBox="0 0 105.4 28">
  <defs>
    <style>
      .cls-1 {
        fill: #fff;
      }
    </style>
  </defs>
  <g id="Layer_1-2" data-name="Layer 1-2">
    <g>
      <path class="cls-1" d="M104.48,5.58l-.83,2.57c-.05.17-.21.28-.38.28h-2.7c-.17,0-.33-.11-.38-.28l-.83-2.57c-.05-.17,0-.35.15-.45l2.18-1.59c.09-.06.18-.08.24-.08s.15.01.24.08l2.18,1.59c.14.1.2.28.15.45M104.86,4.4l-2.18-1.59c-.23-.17-.5-.25-.77-.25s-.54.08-.77.25l-2.18,1.59c-.46.33-.65.92-.48,1.46l.83,2.57c.17.54.68.9,1.24.9h2.7c.57,0,1.07-.36,1.24-.9l.83-2.57c.17-.54-.02-1.13-.48-1.46"/>
      <path class="cls-1" d="M2.78,18.47l3.45-7.16,3.45,7.16H2.78ZM6.72,8.85L0,22.82h.7l1.82-3.8h7.42l1.82,3.8h2.38l-6.72-13.98h-.7Z"/>
      <path class="cls-1" d="M18.33,15.48v-6.09h3.52c.52,0,.98.08,1.36.23.38.15.69.36.92.63.23.27.4.59.52.96.11.37.17.78.17,1.22s-.06.85-.17,1.22c-.11.37-.28.69-.52.96-.23.27-.54.49-.92.64-.38.15-.83.23-1.36.23,0,0-3.52,0-3.52,0ZM24.45,15.75c.51-.17.95-.42,1.34-.74.41-.34.72-.73.94-1.17.22-.44.32-.91.32-1.4s-.11-.96-.32-1.4c-.22-.44-.53-.83-.94-1.17-.41-.34-.89-.6-1.43-.77-.55-.17-1.13-.26-1.75-.26h-6.51v13.98h2.24v-6.77h2.06l5.39,6.77h2.4l-5.39-6.77c.59-.02,1.15-.12,1.65-.29"/>
      <polygon class="cls-1" points="37.51 19.76 31.87 8.86 29.63 8.86 29.63 22.82 30.2 22.82 30.2 9.95 36.7 22.68 43.07 10.23 43.07 22.82 45.31 22.82 45.31 8.86 43.07 8.86 37.51 19.76"/>
      <path class="cls-1" d="M60.36,18.76c-.34.82-.76,1.5-1.27,2.04s-1.07.93-1.68,1.19c-.61.26-1.2.38-1.76.38s-1.13-.13-1.74-.38c-.61-.26-1.17-.65-1.69-1.19s-.94-1.22-1.27-2.04-.5-1.79-.5-2.91.17-2.11.5-2.93c.33-.82.75-1.5,1.27-2.04s1.08-.94,1.69-1.2c.61-.26,1.19-.39,1.74-.39s1.15.13,1.76.39c.61.26,1.18.66,1.69,1.2.51.54.94,1.22,1.27,2.04.33.82.5,1.8.5,2.93s-.17,2.09-.51,2.91M60.92,10.82c-.34-.34-.71-.63-1.11-.88-.4-.25-.83-.47-1.27-.66-.47-.17-.94-.31-1.42-.41-.48-.1-.97-.15-1.49-.15s-1.01.05-1.49.15c-.48.1-.95.24-1.42.41-.44.19-.87.41-1.27.66-.4.25-.77.54-1.11.88-.34.32-.64.66-.91,1.04-.27.38-.5.78-.7,1.2-.38.87-.58,1.8-.58,2.78,0,.48.05.95.14,1.41.09.46.24.91.44,1.34.38.85.92,1.6,1.61,2.26.68.65,1.47,1.16,2.38,1.52.94.37,1.91.56,2.9.56s1.96-.19,2.9-.56c.91-.36,1.7-.87,2.38-1.52.34-.33.64-.68.92-1.05.27-.37.5-.77.69-1.21.2-.43.35-.88.45-1.34.1-.46.15-.93.15-1.41,0-.99-.2-1.92-.59-2.78-.37-.84-.91-1.59-1.61-2.24"/>
      <polygon class="cls-1" points="77.66 19.41 67.81 8.85 65.95 8.85 65.95 22.81 66.51 22.81 66.51 10.19 77.92 22.47 78.22 22.81 78.22 22.79 78.22 8.85 77.66 8.85 77.66 19.41"/>
      <rect class="cls-1" x="81.07" y="8.83" width="2.24" height="13.98"/>
      <path class="cls-1" d="M88.12,18.47l3.45-7.16,3.45,7.16h-6.89ZM92.05,8.85l-6.72,13.98h.7l1.82-3.8h7.42l1.82,3.8h2.38l-6.72-13.98h-.7Z"/>
    </g>
  </g>
</svg>