<?xml version="1.0" encoding="UTF-8"?>
<svg id="Layer_2" data-name="Layer 2" xmlns="http://www.w3.org/2000/svg" viewBox="0 0 1000 193.22">
  <defs>
    <style>
      .cls-1 {
        fill: #fff;
      }
    </style>
  </defs>
  <g id="Layer_1-2" data-name="Layer 1">
    <g>
      <path class="cls-1" d="M991.22,28.62l-7.9,24.34c-.51,1.57-1.97,2.63-3.62,2.63h-25.59c-1.65,0-3.12-1.06-3.62-2.63l-7.9-24.34c-.51-1.57.04-3.29,1.38-4.26l20.7-15.04c.83-.6,1.68-.72,2.24-.72s1.41.12,2.24.72l20.7,15.04c1.34.97,1.9,2.69,1.38,4.26M994.88,17.41l-20.7-15.04c-2.17-1.57-4.74-2.37-7.29-2.37s-5.12.8-7.29,2.37l-20.7,15.04c-4.35,3.16-6.17,8.76-4.51,13.87l7.9,24.34c1.66,5.11,6.43,8.57,11.8,8.57h25.59c5.37,0,10.14-3.46,11.8-8.57l7.9-24.34c1.66-5.11-.16-10.71-4.51-13.87"/>
      <path class="cls-1" d="M26.38,150.89l32.7-67.89,32.7,67.89H26.38ZM63.73,59.6L0,192.22h6.64l17.26-36.01h70.37l17.27,36.01h22.58L70.37,59.6h-6.64Z"/>
      <path class="cls-1" d="M173.94,122.51v-57.76h33.36c4.98,0,9.27.72,12.87,2.16,3.59,1.44,6.5,3.43,8.72,5.98,2.21,2.54,3.84,5.58,4.9,9.13,1.04,3.54,1.57,7.41,1.57,11.62s-.53,8.05-1.57,11.53c-1.06,3.49-2.69,6.54-4.9,9.13-2.22,2.6-5.12,4.62-8.72,6.05-3.6,1.44-7.88,2.16-12.87,2.16h-33.36ZM231.95,125.08c4.82-1.6,9.05-3.95,12.7-7.05,3.87-3.21,6.83-6.92,8.88-11.13,2.05-4.2,3.07-8.63,3.07-13.27s-1.02-9.08-3.07-13.28c-2.05-4.21-5.01-7.91-8.88-11.12-3.88-3.21-8.41-5.65-13.61-7.3-5.2-1.66-10.73-2.49-16.6-2.49h-61.74v132.61h21.25v-64.23h19.59l51.12,64.23h22.74l-51.12-64.23c5.64-.22,10.87-1.13,15.68-2.74"/>
      <polygon class="cls-1" points="355.85 163.17 302.4 59.77 281.16 59.77 281.16 192.22 286.48 192.22 286.48 70.05 348.23 190.89 408.63 72.72 408.63 192.22 429.88 192.22 429.88 59.77 408.63 59.77 355.85 163.17"/>
      <path class="cls-1" d="M572.62,153.63c-3.21,7.8-7.23,14.25-12.04,19.34-4.81,5.09-10.12,8.85-15.93,11.29-5.81,2.43-11.37,3.64-16.68,3.64s-10.71-1.21-16.52-3.64c-5.81-2.44-11.14-6.2-16.01-11.29-4.87-5.09-8.88-11.54-12.03-19.34-3.15-7.8-4.73-17.01-4.73-27.64s1.57-20,4.73-27.8c3.15-7.8,7.16-14.25,12.03-19.34,4.87-5.09,10.2-8.88,16.01-11.37,5.81-2.49,11.32-3.73,16.52-3.73s10.87,1.24,16.68,3.73c5.81,2.5,11.15,6.29,16.01,11.37,4.87,5.09,8.89,11.53,12.03,19.34,3.15,7.8,4.74,17.07,4.74,27.8s-1.61,19.83-4.81,27.64M577.93,78.36c-3.21-3.21-6.73-6-10.54-8.38-3.82-2.38-7.83-4.45-12.03-6.23-4.43-1.66-8.91-2.96-13.44-3.9-4.55-.94-9.24-1.41-14.11-1.41s-9.57.47-14.11,1.41c-4.54.94-9.01,2.24-13.44,3.9-4.21,1.78-8.22,3.85-12.03,6.23-3.82,2.38-7.34,5.17-10.54,8.38-3.21,2.99-6.09,6.28-8.64,9.87-2.55,3.6-4.76,7.38-6.64,11.37-3.65,8.3-5.47,17.1-5.47,26.39,0,4.55.44,9,1.32,13.36.89,4.38,2.27,8.6,4.15,12.7,3.65,8.08,8.75,15.22,15.27,21.41,6.42,6.2,13.94,11.02,22.57,14.44,8.96,3.54,18.14,5.31,27.55,5.31s18.59-1.77,27.56-5.31c8.63-3.43,16.15-8.24,22.57-14.44,3.21-3.1,6.11-6.41,8.72-9.96,2.59-3.54,4.79-7.35,6.55-11.45,1.89-4.1,3.29-8.32,4.24-12.7.94-4.37,1.41-8.82,1.41-13.36,0-9.4-1.88-18.2-5.64-26.39-3.54-7.96-8.63-15.04-15.27-21.24"/>
      <polygon class="cls-1" points="736.77 159.85 643.32 59.6 625.73 59.6 625.73 192.05 631.04 192.05 631.04 72.38 739.25 188.9 742.09 192.05 742.09 191.89 742.09 59.6 736.77 59.6 736.77 159.85"/>
      <rect class="cls-1" x="769.13" y="59.44" width="21.24" height="132.61"/>
      <path class="cls-1" d="M836.01,150.89l32.7-67.89,32.7,67.89h-65.4ZM873.36,59.6l-63.73,132.61h6.64l17.26-36.01h70.37l17.27,36.01h22.58l-63.74-132.61h-6.64Z"/>
    </g>
  </g>
</svg>