<?xml version="1.0" encoding="UTF-8"?>
<svg id="Layer_2" data-name="Layer 2" xmlns="http://www.w3.org/2000/svg" viewBox="0 0 1000 228.44">
  <defs>
    <style>
      .cls-1 {
        fill: #fff;
      }
    </style>
  </defs>
  <g id="Layer_1-2" data-name="Layer 1">
    <g>
      <polygon class="cls-1" points="4.48 49.07 4.48 176.79 33.6 176.79 33.6 49.07 19.04 51.76 4.48 49.07"/>
      <path class="cls-1" d="M32.82,4.6C29.31,1.54,24.71,0,19.04,0S8.95,1.54,5.37,4.6C1.79,7.66,0,11.65,0,16.59s1.79,8.92,5.37,11.98c3.58,3.06,8.14,4.6,13.67,4.6s10.27-1.54,13.78-4.6c3.51-3.06,5.27-7.05,5.27-11.98s-1.76-8.93-5.27-11.99"/>
      <rect class="cls-1" x="64.53" y="4.26" width="29.12" height="172.53"/>
      <path class="cls-1" d="M296.1,135.9c-3.52,6.5-8.33,11.58-14.46,15.24-6.13,3.66-13.14,5.49-21.06,5.49s-15.35-1.83-22.3-5.49c-6.95-3.66-13.04-8.74-18.26-15.24-5.23-6.49-9.49-14-12.78-22.52,3.29-8.51,7.54-16.02,12.78-22.52,5.22-6.5,11.31-11.57,18.26-15.23,6.95-3.66,14.38-5.49,22.3-5.49s14.94,1.83,21.06,5.49c6.12,3.66,10.94,8.73,14.46,15.23,3.51,6.5,5.26,14.01,5.26,22.52s-1.75,16.03-5.26,22.52M300.47,55.24c-9.56-5.6-20.54-8.4-32.94-8.4s-22.52,2.77-32.15,8.29c-9.63,5.53-17.74,13.25-24.31,23.19-.86,1.29-1.68,2.61-2.46,3.96V4.26h-29.12v172.53h29.12v-32.44c.79,1.36,1.61,2.69,2.46,3.98,6.57,10.01,14.68,17.78,24.31,23.3,9.63,5.53,20.35,8.29,32.15,8.29,12.39,0,23.38-2.8,32.94-8.41,9.56-5.6,17.03-13.4,22.41-23.41,5.38-10.01,8.06-21.58,8.06-34.73s-2.69-24.9-8.06-34.84c-5.38-9.93-12.85-17.71-22.41-23.3"/>
      <path class="cls-1" d="M459.44,135.9c-5.3,6.5-11.39,11.58-18.26,15.24-6.88,3.66-14.34,5.49-22.41,5.49s-14.94-1.83-21.06-5.49c-6.13-3.66-10.95-8.74-14.45-15.24-3.52-6.49-5.27-14-5.27-22.52s1.75-16.02,5.27-22.52c3.5-6.5,8.32-11.57,14.45-15.23,6.13-3.66,13.14-5.49,21.06-5.49s15.54,1.83,22.41,5.49c6.87,3.66,12.95,8.73,18.26,15.23,5.3,6.5,9.53,14.01,12.66,22.52-3.13,8.52-7.36,16.03-12.66,22.52M468.6,78.62c-.07-.1-.13-.21-.2-.3-6.65-9.94-14.79-17.66-24.43-23.19-9.63-5.53-20.35-8.29-32.15-8.29-12.4,0-23.38,2.8-32.94,8.4-9.56,5.6-17.03,13.38-22.4,23.3-5.38,9.94-8.07,21.54-8.07,34.84s2.69,24.72,8.07,34.73c5.37,10.01,12.84,17.81,22.4,23.41,9.56,5.61,20.54,8.41,32.94,8.41s22.52-2.77,32.15-8.29c9.64-5.53,17.74-13.29,24.31-23.3.11-.16.2-.32.31-.48l.13,28.94h28.69V49.97h-28.69l-.13,28.65Z"/>
      <path class="cls-1" d="M596.77,153.48l-46.47-103.51h-32.04l58.26,122.79h11.51l-1.43,3.13c-3.13,6.87-7.1,11.69-11.88,14.46-4.78,2.76-10.23,4.14-16.36,4.14-6.43,0-12.21-.82-17.37-2.46s-10.57-4.26-16.24-7.84v22.18c5.22,3.29,10.87,5.86,16.91,7.73,6.05,1.87,12.81,2.79,20.29,2.79,6.57,0,12.73-1.04,18.48-3.13,5.75-2.09,11.05-5.41,15.91-9.97,4.85-4.55,9.07-10.56,12.65-18.04l65.66-135.78h-30.93l-46.96,103.51Z"/>
      <path class="cls-1" d="M803.72,136.58c-3.88,6.49-9.38,11.54-16.46,15.13-7.1,3.58-15.57,5.37-25.44,5.37s-18.14-1.79-25.31-5.37c-7.17-3.59-12.71-8.63-16.58-15.13-3.89-6.5-5.83-14.23-5.83-23.2s1.94-16.69,5.83-23.19c3.87-6.5,9.41-11.54,16.58-15.13,7.17-3.59,15.61-5.37,25.31-5.37s18.34,1.79,25.44,5.37c7.09,3.58,12.58,8.63,16.46,15.13,3.88,6.5,5.83,14.22,5.83,23.19s-1.95,16.7-5.83,23.2M802.26,55.24c-11.58-5.6-25.06-8.4-40.45-8.4s-28.87,2.8-40.44,8.4c-11.58,5.6-20.62,13.38-27.12,23.3-6.5,9.94-9.75,21.54-9.75,34.84s3.25,24.72,9.75,34.73,15.54,17.81,27.12,23.41c11.57,5.61,25.05,8.41,40.44,8.41s28.87-2.8,40.45-8.41c11.57-5.6,20.62-13.4,27.12-23.41,6.49-10.01,9.74-21.58,9.74-34.73s-3.25-24.9-9.74-34.84c-6.5-9.93-15.55-17.71-27.12-23.3"/>
      <path class="cls-1" d="M1000,176.79l-7.39-41.23V49.97h-29.13v61.84c0,8.82-1.65,16.55-4.94,23.2-3.29,6.64-7.87,11.76-13.78,15.35-5.9,3.58-12.96,5.38-21.17,5.38-11.36,0-20.06-3.39-26.11-10.2-6.05-6.79-9.07-16.77-9.07-29.91V49.97h-29.13v70.13c0,12.4,2.17,23.08,6.5,32.04,4.33,8.96,10.56,15.84,18.71,20.62,8.14,4.79,18.04,7.17,29.7,7.17,10.6,0,20.16-2.5,28.68-7.5,8.51-5.01,15.46-12.18,20.84-21.52.8-1.4,1.56-2.86,2.28-4.34l4.89,30.22h29.13Z"/>
      <path class="cls-1" d="M767.58,196.97c-23.76-12.12-49.79-7.29-66.39-1.73v27.54c6.07-2.96,31.92-14.36,51.55-4.34,14.54,7.41,28.22,10.01,40.25,10,9.92,0,18.71-1.75,25.92-4.02v-27.65c-9.35,5.14-28.37,11.94-51.33.21"/>
    </g>
  </g>
</svg>