<?xml version="1.0" encoding="UTF-8"?>
<svg id="Layer_1" data-name="Layer 1" xmlns="http://www.w3.org/2000/svg" viewBox="0 0 81.45 28">
  <defs>
    <style>
      .cls-1 {
        fill: #fff;
      }
    </style>
  </defs>
  <g id="Layer_1-2" data-name="Layer 1-2">
    <g>
      <polygon class="cls-1" points=".36 9.7 .36 20.1 2.74 20.1 2.74 9.7 1.55 9.92 .36 9.7"/>
      <path class="cls-1" d="M2.67,6.08c-.29-.25-.66-.37-1.12-.37s-.82.13-1.11.37-.44.57-.44.98.15.73.44.98.66.37,1.11.37.84-.13,1.12-.37.43-.57.43-.98-.14-.73-.43-.98"/>
      <rect class="cls-1" x="5.26" y="6.05" width="2.37" height="14.05"/>
      <path class="cls-1" d="M24.12,16.77c-.29.53-.68.94-1.18,1.24s-1.07.45-1.72.45-1.25-.15-1.82-.45-1.06-.71-1.49-1.24c-.43-.53-.77-1.14-1.04-1.83.27-.69.61-1.3,1.04-1.83.43-.53.92-.94,1.49-1.24.57-.3,1.17-.45,1.82-.45s1.22.15,1.72.45c.5.3.89.71,1.18,1.24.29.53.43,1.14.43,1.83s-.14,1.31-.43,1.83M24.47,10.2c-.78-.46-1.67-.68-2.68-.68s-1.83.23-2.62.68c-.78.45-1.44,1.08-1.98,1.89-.07.11-.14.21-.2.32v-6.36h-2.37v14.05h2.37v-2.64c.06.11.13.22.2.32.54.82,1.2,1.45,1.98,1.9.78.45,1.66.68,2.62.68,1.01,0,1.9-.23,2.68-.69.78-.46,1.39-1.09,1.83-1.91.44-.82.66-1.76.66-2.83s-.22-2.03-.66-2.84c-.44-.81-1.05-1.44-1.83-1.9"/>
      <path class="cls-1" d="M37.42,16.77c-.43.53-.93.94-1.49,1.24-.56.3-1.17.45-1.83.45s-1.22-.15-1.72-.45c-.5-.3-.89-.71-1.18-1.24-.29-.53-.43-1.14-.43-1.83s.14-1.3.43-1.83c.29-.53.68-.94,1.18-1.24.5-.3,1.07-.45,1.72-.45s1.27.15,1.83.45c.56.3,1.05.71,1.49,1.24.43.53.78,1.14,1.03,1.83-.25.69-.6,1.31-1.03,1.83M38.17,12.11s-.01-.02-.02-.02c-.54-.81-1.2-1.44-1.99-1.89-.78-.45-1.66-.68-2.62-.68-1.01,0-1.9.23-2.68.68-.78.46-1.39,1.09-1.82,1.9-.44.81-.66,1.75-.66,2.84s.22,2.01.66,2.83c.44.82,1.05,1.45,1.82,1.91.78.46,1.67.69,2.68.69s1.83-.23,2.62-.68c.79-.45,1.44-1.08,1.98-1.9,0-.01.02-.03.03-.04v2.36h2.35v-10.33h-2.34v2.33s0,0,0,0Z"/>
      <path class="cls-1" d="M48.61,18.21l-3.79-8.43h-2.61l4.75,10h.94l-.12.25c-.25.56-.58.95-.97,1.18-.39.22-.83.34-1.33.34-.52,0-.99-.07-1.41-.2s-.86-.35-1.32-.64v1.81c.43.27.89.48,1.38.63.49.15,1.04.23,1.65.23.54,0,1.04-.08,1.51-.25.47-.17.9-.44,1.3-.81.4-.37.74-.86,1.03-1.47l5.35-11.06h-2.52l-3.83,8.43h0Z"/>
      <path class="cls-1" d="M65.47,16.83c-.32.53-.76.94-1.34,1.23-.58.29-1.27.44-2.07.44s-1.48-.15-2.06-.44c-.58-.29-1.04-.7-1.35-1.23-.32-.53-.47-1.16-.47-1.89s.16-1.36.47-1.89c.32-.53.77-.94,1.35-1.23.58-.29,1.27-.44,2.06-.44s1.49.15,2.07.44c.58.29,1.02.7,1.34,1.23s.47,1.16.47,1.89-.16,1.36-.47,1.89M65.35,10.2c-.94-.46-2.04-.68-3.29-.68s-2.35.23-3.29.68c-.94.46-1.68,1.09-2.21,1.9-.53.81-.79,1.75-.79,2.84s.26,2.01.79,2.83,1.27,1.45,2.21,1.91c.94.46,2.04.69,3.29.69s2.35-.23,3.29-.69c.94-.46,1.68-1.09,2.21-1.91.53-.82.79-1.76.79-2.83s-.26-2.03-.79-2.84c-.53-.81-1.27-1.44-2.21-1.9"/>
      <path class="cls-1" d="M81.45,20.1l-.6-3.36v-6.97h-2.37v5.04c0,.72-.13,1.35-.4,1.89-.27.54-.64.96-1.12,1.25-.48.29-1.06.44-1.72.44-.93,0-1.63-.28-2.13-.83-.49-.55-.74-1.37-.74-2.44v-5.35h-2.37v5.71c0,1.01.18,1.88.53,2.61s.86,1.29,1.52,1.68c.66.39,1.47.58,2.42.58.86,0,1.64-.2,2.34-.61.69-.41,1.26-.99,1.7-1.75.07-.11.13-.23.19-.35l.4,2.46h2.37,0Z"/>
      <path class="cls-1" d="M62.52,21.75c-1.94-.99-4.06-.59-5.41-.14v2.24c.49-.24,2.6-1.17,4.2-.35,1.18.6,2.3.82,3.28.81.81,0,1.52-.14,2.11-.33v-2.25c-.76.42-2.31.97-4.18.02"/>
    </g>
  </g>
</svg>