<?xml version="1.0" encoding="UTF-8"?>
<svg id="Layer_1" data-name="Layer 1" xmlns="http://www.w3.org/2000/svg" viewBox="0 0 66.75 28">
  <defs>
    <style>
      .cls-1 {
        fill: #fff;
      }
    </style>
  </defs>
  <g id="Layer_1-2" data-name="Layer 1-2">
    <g>
      <path class="cls-1" d="M23.12,19.17c-1.01,1-2.76,2.28-4.86,2.28-1.78,0-3.21-1.1-3.21-4.21v-8.3h0s-9.87,0-9.87,0v.65h2.85c5.84,0-5.84,6.86-5.84,6.86V5.04H0v17.7h2.18v-5.41l3.09-1.95,4.34,7.36h2.56c-1.85-2.7-5.14-8.6-5.14-8.6,0,0,4.67-3.48,3.56-4.56h2.26c0,2.12.03,8.73.03,8.73,0,3.89,2.5,4.36,4.4,4.36s3.99-.33,5.82-2.54v2.61h2.24v-13.8h-2.24v10.24h0Z"/>
      <path class="cls-1" d="M50.24,19.17c-1.01,1-2.76,2.28-4.86,2.28-1.78,0-3.21-1.1-3.21-4.21v-8.3h0s-9.87,0-9.87,0v.65h2.85c5.84,0-5.84,6.86-5.84,6.86V5.04h-2.18v17.7h2.18v-5.41l3.09-1.95,4.34,7.36h2.56c-1.85-2.7-5.14-8.6-5.14-8.6,0,0,4.67-3.48,3.56-4.56h2.26c0,2.12.03,8.73.03,8.73,0,3.89,2.5,4.36,4.4,4.36s3.99-.33,5.82-2.54v2.61h2.24v-13.8h-2.24v10.24h0Z"/>
      <path class="cls-1" d="M66.75,22.73l-.04-9.37c0-3.89-2.5-4.36-4.4-4.36s-3.99.33-5.82,2.54v-2.61h-2.24v13.8h2.24v-10.24c1.01-1,2.76-2.28,4.86-2.28,1.78,0,3.21,1.1,3.21,4.21v8.3h2.19Z"/>
      <rect class="cls-1" x="43.35" y="6.62" width="5.73" height=".66"/>
    </g>
  </g>
</svg>