<?xml version="1.0" encoding="UTF-8"?>
<svg id="Layer_2" data-name="Layer 2" xmlns="http://www.w3.org/2000/svg" viewBox="0 0 1000 265.13">
  <defs>
    <style>
      .cls-1 {
        fill: #fff;
      }
    </style>
  </defs>
  <g id="Layer_1-2" data-name="Layer 1">
    <g>
      <path class="cls-1" d="M346.31,211.74c-15.13,15.03-41.32,34.13-72.8,34.13-26.65,0-48.04-16.46-48.04-63.12V58.39h-.12v-.02l-147.9-.06v9.74h42.76c87.48,0-87.51,102.72-87.51,102.72,0,0,0-170.19,0-170.77H0v265.13h32.7v-81.04l46.3-29.27,65.03,110.31h38.35c-27.65-40.45-76.93-128.81-76.93-128.81,0,0,69.98-52.16,53.32-68.26h33.91c.12,31.73.49,130.75.49,130.75,0,58.23,37.44,65.26,65.89,65.26s59.81-5.01,87.24-38.07v39.15h33.59V58.39h-33.59v153.35Z"/>
      <path class="cls-1" d="M752.69,211.74c-15.13,15.03-41.32,34.13-72.8,34.13-26.65,0-48.04-16.46-48.04-63.12V58.39h-.12v-.02l-147.9-.06v9.74h42.76c87.48,0-87.51,102.72-87.51,102.72,0,0,0-170.19,0-170.77h-32.7v265.13h32.7v-81.04l46.3-29.27,65.03,110.31h38.35c-27.65-40.45-76.93-128.81-76.93-128.81,0,0,69.98-52.16,53.32-68.26h33.91c.12,31.73.49,130.75.49,130.75,0,58.23,37.44,65.26,65.89,65.26s59.81-5.01,87.24-38.07v39.15h33.59V58.39h-33.59v153.35Z"/>
      <path class="cls-1" d="M1000,265.13s-.53-140.41-.53-140.41c0-58.23-37.44-65.26-65.89-65.26s-59.81,5.01-87.24,38.07v-39.15h-33.59v206.74h33.59V111.77c15.13-15.03,41.32-34.13,72.8-34.13,26.65,0,48.04,16.46,48.04,63.12v124.36h32.82Z"/>
      <rect class="cls-1" x="649.38" y="23.8" width="85.77" height="9.86"/>
    </g>
  </g>
</svg>