<svg viewBox="0 0 1000 265.13" xmlns="http://www.w3.org/2000/svg"><g fill="#fff"><path d="m346.31 211.74c-15.13 15.03-41.32 34.13-72.8 34.13-26.65 0-48.04-16.46-48.04-63.12v-124.36h-.12v-.02l-147.9-.06v9.74h42.76c87.48 0-87.51 102.72-87.51 102.72s0-170.19 0-170.77h-32.7v265.13h32.7v-81.04l46.3-29.27 65.03 110.31h38.35c-27.65-40.45-76.93-128.81-76.93-128.81s69.98-52.16 53.32-68.26h33.91c.12 31.73.49 130.75.49 130.75 0 58.23 37.44 65.26 65.89 65.26s59.81-5.01 87.24-38.07v39.15h33.59v-206.76h-33.59v153.35z"/><path d="m752.69 211.74c-15.13 15.03-41.32 34.13-72.8 34.13-26.65 0-48.04-16.46-48.04-63.12v-124.36h-.12v-.02l-147.9-.06v9.74h42.76c87.48 0-87.51 102.72-87.51 102.72s0-170.19 0-170.77h-32.7v265.13h32.7v-81.04l46.3-29.27 65.03 110.31h38.35c-27.65-40.45-76.93-128.81-76.93-128.81s69.98-52.16 53.32-68.26h33.91c.12 31.73.49 130.75.49 130.75 0 58.23 37.44 65.26 65.89 65.26s59.81-5.01 87.24-38.07v39.15h33.59v-206.76h-33.59v153.35z"/><path d="m1000 265.13s-.53-140.41-.53-140.41c0-58.23-37.44-65.26-65.89-65.26s-59.81 5.01-87.24 38.07v-39.15h-33.59v206.74h33.59v-153.35c15.13-15.03 41.32-34.13 72.8-34.13 26.65 0 48.04 16.46 48.04 63.12v124.36h32.82z"/><path d="m649.38 23.8h85.77v9.86h-85.77z"/></g></svg>