<svg viewBox="0 0 2000 785.8" xmlns="http://www.w3.org/2000/svg"><g fill="#fff"><path d="m913.71 510.58c0-30.13-24.1-49.83-49.83-49.83h-11.36v49.37h-30.13v-170.71h30.13v92.61h12.75c22.48 0 44.83-24.96 44.83-50.81h29.57c0 25.85-15.06 49.42-34.07 62.86 22.02 12.75 38.94 35.46 38.94 66.52h-30.83z"/><path d="m525.26 419.65c0-9.19 7.26-15 21.53-15s21.53 9.19 22.49 18.14h27.57c-1.21-16.93-13.3-41.6-49.34-41.6-30.96 0-49.83 18.38-49.83 39.43 0 51.04 72.08 27.33 72.08 53.94 0 8.71-8.22 14.27-23.22 14.27-17.66 0-26.36-8.46-27.09-19.35h-27.82c1.45 22.98 16.45 43.06 53.21 43.06s52.49-17.9 52.49-39.18c0-50.79-72.08-29.27-72.08-53.7z"/><path d="m652.1 339.08h-28.78v44.79h-19.11v22.98h19.11v66.27c0 23.71 11.13 37.01 36.77 37.01 9.67 0 15-1.45 15-1.45v-24.91s-4.11 1.21-8.95 1.21c-9.92 0-14.03-4.84-14.03-14.75v-63.37h23.46v-22.98h-23.46v-44.79z"/><path d="m800.73 428.12c0-28.78-17.42-46.92-54.18-46.92s-52.97 20.32-55.39 42.33h28.06c1.94-11.61 10.88-18.63 26.61-18.63 17.17 0 26.85 7.74 26.85 22.98v1.93l-36.28 5.08c-33.14 4.6-48.13 18.38-48.13 39.67s12.82 37.97 44.02 37.97c20.08 0 34.59-6.53 43.05-19.35 0 10.16 1.45 16.45 1.69 16.45h27.33c-2.18-5.08-3.63-15.48-3.63-23.7zm-28.06 30.48c0 16.93-11.37 31.44-34.59 31.44-13.79 0-22.25-4.6-22.25-16.45 0-8.71 5.81-15.24 23.46-17.9l33.38-5.08v7.98z"/><path d="m1219.21 428.12c0-28.78-17.42-46.92-54.18-46.92s-52.97 20.32-55.39 42.33h28.06c1.94-11.61 10.89-18.63 26.61-18.63 17.17 0 26.85 7.74 26.85 22.98v1.93l-36.28 5.08c-33.14 4.6-48.13 18.38-48.13 39.67s12.82 37.97 44.02 37.97c20.08 0 34.59-6.53 43.05-19.35 0 10.16 1.45 16.45 1.69 16.45h27.33c-2.18-5.08-3.63-15.48-3.63-23.7zm-28.06 30.48c0 16.93-11.37 31.44-34.59 31.44-13.79 0-22.25-4.6-22.25-16.45 0-8.71 5.81-15.24 23.46-17.9l33.38-5.08v7.98z"/><path d="m1034.21 381.65c-19.35 0-33.14 8.71-40.15 19.35v-62.88h-28.78v171.97h26.61v-17.9c8.22 13.06 22.98 20.8 42.33 20.8 37.25 0 58.29-29.75 58.29-65.55s-21.04-65.79-58.29-65.79zm-5.8 105.94c-22.01 0-35.31-17.66-35.31-40.15s13.3-40.39 35.31-40.39 35.31 17.42 35.31 40.39-13.55 40.15-35.31 40.15z"/><path d="m1415.71 363.28c25.88 0 45.47 14.03 51.28 38.22h31.2c-7.01-40.88-39.91-66.27-82.48-66.27-50.07 0-85.87 36.52-85.87 89.25s35.8 89.49 85.87 89.49c42.57 0 75.46-25.4 82.48-66.27h-31.2c-5.8 24.19-25.4 38.22-51.28 38.22-34.35 0-54.91-24.43-54.91-61.44s20.56-61.19 54.91-61.19z"/><path d="m1528.8 374.79c10.4 0 17.9-7.26 17.9-17.66s-7.5-18.14-17.9-18.14-18.14 7.5-18.14 18.14 7.5 17.66 18.14 17.66z"/><path d="m1276.64 484.68c-5.11-.63-8.51-3.96-9.62-9.05-.67-3.06-.99-6.25-1-9.38l-.04-126.83h-28.91l.03 127.18c0 4.23.19 8.51.83 12.68 1.9 12.24 7.17 22.38 19.15 27.62 10.3 4.51 22.23 4.57 33.09 2.52v-24.64c-4.57 0-9.12.43-13.54-.11z"/><path d="m418.82 378.6c-36.9 0-66.91 30.02-66.91 66.91 0 2.42.14 4.8.39 7.16.04 1.26.1 2.79.18 4.63.11 2.52.31 7.17.38 10.85.03 1.62.04 3.03 0 4.02v1.02c0 7.98-6.47 14.46-14.45 14.46h-.09c-6.06-.04-11.24-3.81-13.34-9.12-.46-1.56-.78-3.22-1.01-4.96-.01-.04-.03-.08-.03-.12s.01-25.9.01-25.9v-37.38h-.04v-71.17h-26.85l-54.43 71.12-54.18-71.12h-26.85v171.73h28.79v-125.52l51.76 67.23h.96l52.01-67.23v65.52h.04v7.37c-.04 2.21-.07 4.46-.04 6.75v.26c.09 9.3 1.04 19.15 5.47 28.57 5.13 10.9 17.6 19.31 34.93 19.31 2.61 0 5.32-.22 8.14-.69 12.51-2.09 22.83-7.81 29.29-18.13 11.99 11.31 28.12 18.26 45.86 18.26 36.9 0 66.91-30.02 66.91-66.91s-30.02-66.91-66.91-66.91zm0 106.88c-22.03 0-39.96-17.93-39.96-39.96s17.93-39.96 39.96-39.96 39.96 17.93 39.96 39.96-17.93 39.96-39.96 39.96z"/><path d="m1714.63 382.04-.07 72.56c-.03 15.69-13.11 28.37-28.92 27.75-13.89-.54-24.89-11.54-26.49-25.07-.02-.43-.06-.85-.06-1.28v-74.43h-.3v-.22h-28.88v90.02c-.56 8.88-9.4 15.5-18.36 15.5-1.17 0-2.33-.11-3.45-.32-8.6-1.62-15.11-9.17-15.11-18.23v-63.48h23.46v-22.98h-23.46v-42.1h-28.79v42.1h-49.93v129.58h28.79v-106.6h21.14v70.31c0 7.62 1.09 15.58 4.96 22.28 3.49 6.04 9.14 10.24 15.71 12.43 9.47 3.15 20.21 3.84 30.08 3.48 7.83-.28 15.13-2.17 21.85-6.5 1.83-1.17 4.14-2.97 5.63-4.55.35-.38 3.18-3.8 3.91-5.14l-.09-.14c.16-.2.27-.36.24-.38 2.33 1.85 4.78 3.55 7.34 5.08 3 1.79 6.14 3.35 9.41 4.66 7.16 3.26 15.11 5.08 23.48 5.08 10.12 0 19.64-2.67 27.88-7.33v22.02h-36.64c-45.7 0-65.16 59.19-27.68 85.32 9.61 6.7 21.4 10.61 34.12 10.67 32.43.18 59.08-27.15 59.26-59.57v-180.51h-29.05zm-.02 182.69c-.1 16.37-13.49 29.69-29.85 29.69-4.91 0-9.53-1.19-13.61-3.27-17.64-9.08-10.69-35.97 9.15-35.97h34.32v9.56z"/><path d="m1837.62 785.8h-1783.88c-29.63 0-53.74-24.1-53.74-53.73v-678.34c0-29.63 24.11-53.73 53.74-53.73h1946.26v29.27h-1946.26c-13.49 0-24.46 10.97-24.46 24.46v678.34c0 13.49 10.97 24.46 24.46 24.46h1783.88c13.49 0 24.46-10.97 24.46-24.46v-152.24c0-13.49-10.97-24.46-24.46-24.46h-137.84v-29.27h137.84c29.63 0 53.74 24.1 53.74 53.73v152.24c0 29.63-24.11 53.73-53.74 53.73z"/><path d="m159.31 269.92v-82.93h32.09c24.52 0 43.75 18.03 43.75 41.46s-19.23 41.46-43.75 41.46h-32.09zm16.82-16.23h15.26c15.86 0 26.8-11.78 26.8-25.24s-10.94-25.24-26.8-25.24h-15.26v50.47z"/><path d="m300.66 258.86c-6.37 7.82-15.98 12.26-27.04 12.26-19.59 0-32.09-14.42-32.09-33.53 0-18.03 11.66-32.93 31.73-32.93 18.99 0 30.29 16.58 30.29 32.93v6.13h-45.43c1.92 7.81 7.69 12.74 15.62 12.74 6.85 0 11.66-3.25 14.66-6.97zm-14.06-28c-2.04-7.57-7.57-11.54-13.82-11.54-7.09 0-12.74 3.73-14.42 11.54z"/><path d="m323.03 206.22 16.58 46.63 16.11-46.63h17.91l-24.52 63.81h-18.87l-25.36-63.81z"/><path d="m433.98 258.86c-6.37 7.82-15.98 12.26-27.04 12.26-19.59 0-32.09-14.42-32.09-33.53 0-18.03 11.66-32.93 31.73-32.93 18.99 0 30.29 16.58 30.29 32.93v6.13h-45.43c1.92 7.81 7.69 12.74 15.62 12.74 6.85 0 11.66-3.25 14.66-6.97zm-14.06-28c-2.04-7.57-7.57-11.54-13.82-11.54-7.09 0-12.74 3.73-14.42 11.54z"/><path d="m463.08 177.38v92.54h-15.63v-92.54z"/><path d="m472.1 238.07c0-18.51 14.9-33.89 33.53-33.89s32.93 15.38 32.93 33.89-15.02 33.89-33.41 33.89-33.05-15.5-33.05-33.89zm50.48-.12c0-10.22-7.69-18.51-17.06-18.51s-17.43 8.29-17.43 18.75 7.57 18.39 16.95 18.39 17.55-8.29 17.55-18.63z"/><path d="m563.7 206.22v11.18c5.89-6.73 13.7-13.1 24.51-13.1 18.03 0 30.41 16.1 30.41 33.65 0 15.5-9.73 34.13-31.61 34.13-9.97 0-17.55-5.53-23.31-11.9v37.5h-15.63v-27.76c0-9.25 1.2-20.55 4.21-31.25-3.12-11.05-4.32-22.96-4.32-32.45h15.75zm24.03 50.48c9.13 0 15.26-8.17 15.26-18.39 0-11.05-7.09-18.63-15.14-18.63-7.45 0-15.98 6.49-20.55 18.87 4.32 11.66 12.26 18.15 20.43 18.15z"/><path d="m683.54 258.86c-6.37 7.82-15.98 12.26-27.04 12.26-19.59 0-32.09-14.42-32.09-33.53 0-18.03 11.66-32.93 31.73-32.93 18.99 0 30.29 16.58 30.29 32.93v6.13h-45.43c1.92 7.81 7.69 12.74 15.63 12.74 6.85 0 11.65-3.25 14.66-6.97l12.26 9.37zm-14.06-28c-2.04-7.57-7.57-11.54-13.82-11.54-7.09 0-12.74 3.73-14.42 11.54z"/><path d="m748.82 270.04c0-3.24-.12-7.45-.36-10.33-5.77 6.73-13.58 12.14-23.92 12.14-18.38 0-30.77-15.98-30.77-32.81s9.86-34.85 31.73-34.85c9.85 0 17.31 5.17 22.96 11.54.24-2.64.24-6.61.36-9.49v-28.84h15.62v28.96c-.12 9.25-1.2 20.55-4.21 31.25 3.12 11.06 4.21 22.96 4.21 32.45h-15.62zm-23.31-50.48c-9.97 0-16.1 8.17-16.1 19.47 0 9.97 7.09 17.43 15.14 17.43 7.45 0 15.99-6.37 20.55-18.75-4.32-11.66-12.25-18.15-19.59-18.15z"/><path d="m821.92 187.47c0 6.01-4.09 9.73-10.33 9.73s-10.34-3.72-10.34-9.73 4.09-9.73 10.34-9.73 10.33 3.73 10.33 9.73zm-2.16 82.45h-16.22v-63.46h16.22z"/><path d="m834.67 269.92v-63.81h15.63v14.06c5.05-10.7 13.46-15.86 23.56-15.86 15.98 0 24.52 12.74 24.52 27.16v38.46h-15.63v-38.46c0-7.93-3.61-11.54-9.13-11.54-10.09 0-23.31 12.26-23.31 45.91v4.09h-15.63z"/></g></svg>