<svg fill="none" height="20" viewBox="0 0 10 20" width="10" xmlns="http://www.w3.org/2000/svg" xmlns:xlink="http://www.w3.org/1999/xlink"><clipPath id="a"><path d="m0 0h10v20h-10z"/></clipPath><g clip-path="url(#a)"><path d="m103.907 19.7085h3.931v-6.0374l5.485 6.0374h4.809l-6.385-6.9581 5.455-6.03325h-4.377l-4.987 5.56075v-12.27619102l-3.931.48911502zm-9.0649-13.32413c-4.3637 0-7.394 2.78645-7.394 6.82643 0 4.04 3.0303 6.8265 7.394 6.8265 4.3636 0 7.3939-2.7865 7.3939-6.8265 0-4.03998-3.0303-6.82643-7.3939-6.82643zm0 10.47193c-2.0217 0-3.4069-1.4837-3.4069-3.6455 0-2.1617 1.3852-3.64542 3.4069-3.64542 2.0216 0 3.4069 1.48372 3.4069 3.64542 0 2.1618-1.3853 3.6455-3.4069 3.6455zm-15.9743-10.47193c-4.3636 0-7.394 2.78645-7.394 6.82643 0 4.04 3.0304 6.8265 7.394 6.8265 4.3638 0 7.394-2.7865 7.394-6.8265 0-4.03998-3.0302-6.82643-7.394-6.82643zm0 10.47193c-2.0216 0-3.4069-1.4837-3.4069-3.6455 0-2.1617 1.3853-3.64542 3.4069-3.64542 2.0218 0 3.407 1.48372 3.407 3.64542 0 2.1618-1.3852 3.6455-3.407 3.6455zm-15.0434-10.47193c-1.8182 0-3.3247.6781-4.2684 1.91924v-8.30190102l-3.9351.48493702v19.217754h3.4892l.0692-2.0056c.9308 1.4959 2.5975 2.3385 4.6451 2.3385 3.7317 0 6.4633-2.877 6.4633-6.8265 0-3.9496-2.7187-6.82643-6.4633-6.82643zm-.9307 10.47193c-2.0217 0-3.4069-1.4837-3.4069-3.6455 0-2.1617 1.3852-3.64542 3.4069-3.64542 2.0216 0 3.4069 1.48372 3.4069 3.64542 0 2.1618-1.3853 3.6455-3.4069 3.6455zm-15.1517.1684c-2.0866 0-3.5844-.9206-4.0952-2.5069h9.684c.0953-.485.1602-1.0604.1602-1.4467 0-4.17977-2.4633-6.68673-6.6018-6.68673-4.1775 0-7.0694 2.78645-7.0694 6.82643 0 4.0934 3.0304 6.8265 7.5283 6.8265 2.3289 0 4.5931-.7398 6.0087-1.9686l-1.4156-2.3672c-1.3723.9-2.7187 1.3232-4.1992 1.3232zm-.8788-7.73881c1.8182 0 2.9784 1.04801 2.9784 2.67141v.0124h-6.2771c.3767-1.722 1.5497-2.68381 3.2987-2.68381zm-13.1992 10.75541c2.0346 0 4.026-.7397 5.4285-2.022l-1.5368-2.4535c-1.0909.8055-2.3289 1.2411-3.5021 1.2411-2.1819 0-3.6364-1.4467-3.6364-3.592s1.4545-3.59205 3.6364-3.59205c1.0778 0 2.251.36987 3.2034 1.02345l1.5628-2.50712c-1.2641-1.08494-3.2208-1.75076-5.1602-1.75076-4.2684 0-7.2858 2.82759-7.2858 6.82648.0043 3.9866 3.0216 6.8264 7.2902 6.8264zm-12.498-13.32415-.0692 2.02215c-.9308-1.50835-2.5975-2.35088-4.6451-2.35088-3.7447 0-3.9517 2.87696-3.9517 6.82648 0 3.9496.2244 6.8264 3.9517 6.8264 2.0476 0 3.7185-.8425 4.6451-2.3385l.0692 2.0056h3.4892v-12.99125zm-3.7836 10.13915c-2.0216 0-3.407-1.4837-3.407-3.6455 0-2.1617 1.3854-3.64542 3.407-3.64542 2.0217 0 3.4069 1.48372 3.4069 3.64542 0 2.1618-1.3896 3.6455-3.4069 3.6455zm-7.68844-10.11472h-3.5368v-1.10975c0-1.66037.684-2.29734 2.45894-2.29734.54973 0 .9956.01228 1.25106.03697v-2.848105c-.48493-.127469-1.66666-.25481-2.35066-.25481-3.6148 0-5.28147 1.619235-5.28147 5.116705v1.35216h-2.233733v3.14h2.233733v9.82669h3.9264v-9.82264h2.92653z" fill="#fff"/></g></svg>