<svg fill="none" height="20" viewBox="0 0 21 20" width="21" xmlns="http://www.w3.org/2000/svg" xmlns:xlink="http://www.w3.org/1999/xlink"><clipPath id="a"><path d="m0 0h21v20h-21z"/></clipPath><g clip-path="url(#a)" fill="#fff"><path d="m10.5685 4.88672c-.1819-.0001-.3636.00878-.5445.02658-.17678.01753-.35256.04372-.5266.07848-.17292.03418-.3432.07637-.51085.12659l-.49439.17278-.46081.21519-.44041.2576-.41539.29746-.37787.33102-.34627.36455-.30743.39494-.26793.42278-.22514.44811c-.06833.15394-.12853.3111-.18038.47088-.05237.16129-.09631.325-.13166.49051-.03622.16732-.06347.33632-.08163.50633-.05572.51868-.02819 1.04248.08163 1.55318.07029.3297.17482.6518.31204.9614l.22514.4481.26793.4228.30743.3962.34561.3645.37919.331.41144.2962.44041.2576.46608.2165.48978.1728.51084.1266c.53164.1051 1.07684.1315 1.61684.0784.1768-.0176.3525-.0438.5266-.0784l.5109-.1266.4897-.1728.4668-.2165.4404-.2576.4108-.2962.3798-.331.345-.3645.3081-.395.2679-.4228.2258-.4481.1804-.4708c.0523-.1613.0963-.325.1316-.4906l.0817-.5063c.0177-.1715.0276-.3462.0276-.5221 0-.17598-.0099-.35067-.0276-.52282-.0184-.16998-.0456-.33897-.0817-.50633-.0352-.16553-.0792-.32924-.1316-.4905l-.1804-.47089-.2258-.4481-.2653-.42595-.3081-.39494-.345-.36455-.3798-.33165-.4108-.29557-.4404-.25886-.4687-.21519-.4898-.17278-.5108-.12659-.5267-.07784c-.1806-.01773-.3621-.0266-.5437-.02659zm0 1.77215c.1198-.00007.2395.00564.3587.01709l.3483.05063.3357.08228.3219.11203.3055.14114.2877.16709.2686.19303.2481.21583.2252.2386.1975.25823.1744.27658.1468.29368c.0439.10084.083.204.1172.30949.0336.10506.0625.21266.0856.32278.023.11013.0401.22089.0526.33418l.0178.34497c0 .1171-.0059.2316-.0178.3455-.0118.114-.0296.2247-.0526.3342-.0231.1095-.052.2177-.0856.3228l-.1145.3101-.1468.2937-.1745.2759-.1975.2583-.2251.2386-.2482.2158-.2686.1899-.2877.1671-.3054.1411-.3219.112-.3358.0823-.3502.0506c-.1192.0114-.239.0171-.3588.0171s-.2403-.0057-.3594-.0171l-.3476-.0506c-.11353-.0218-.22581-.0493-.3364-.0823l-.32125-.112-.30611-.1411-.28768-.1671-.26859-.1899-.24818-.2158-.22514-.2386-.1975-.2583-.17445-.2765-.15009-.2931-.11718-.3095-.08558-.3228-.05267-.3341c-.01185-.1144-.01777-.2296-.01777-.3456 0-.11519.00592-.23038.01777-.34494.01185-.11455.02963-.22468.05267-.33417.02308-.10892.05186-.21666.08624-.32279l.11652-.30949.1468-.29367.17445-.27658.19749-.25823.22449-.23798.24818-.21645.26859-.18988.28768-.16772.30611-.14114c.10533-.04219.21241-.07953.32125-.11202l.3364-.08228c.11389-.02215.23045-.03924.34755-.05063.1172-.0114.2397-.01709.3595-.01709z"/><path d="m16.1233 3.42837c-.0422 0-.0843 0-.1271.00569-.0428.0057-.0836.01013-.1251.01836-.0414.00822-.0829.01835-.1231.03038-.0401.01202-.0803.02658-.1198.0424-.0395.01583-.077.03418-.1145.0538-.0376.01962-.0731.04114-.108.06329s-.0691.0481-.1014.07469c-.0322.02658-.0658.05442-.0928.08354-.027.02911-.0573.06013-.0836.0924-.0263.03228-.0514.06329-.0744.1-.0239.03453-.0458.07023-.0658.10697-.0191.03607-.0362.07405-.052.11202-.0158.03798-.0283.07722-.0402.11646-.0118.03924-.0204.07974-.0276.12025-.0073.04051-.0119.08101-.0152.12215v.08671c.0002.08226.0088.1643.0257.24494.0081.04017.0184.07989.0309.11898.0124.0392.0271.07766.0441.1152.0163.03786.0348.07484.0553.11075.0199.03617.0419.07125.0659.10507.0243.03418.05.06645.077.0981.027.03164.0566.06329.0869.08987.0302.02866.0621.05571.0954.08102.0331.02567.0676.04954.1034.07151.0355.02293.0722.04406.1099.0633.0382.01835.0771.03544.1166.04999.0395.01456.0796.02785.1204.03924.0408.0114.0823.01963.1238.02659s.0843.01202.1264.01519c.0296 0 .0599.00316.0895.00316.0428 0 .0849 0 .1271-.00633.0421-.00633.0842-.01012.1257-.01835s.083-.01835.1231-.03038c.0405-.01215.0802-.0263.1192-.04241.0784-.03169.1532-.07114.2231-.11772.0349-.02341.0659-.0481.1014-.07468.0325-.02618.0635-.05407.0928-.08354.0296-.02932.0575-.06017.0836-.09241.0527-.06442.0986-.13375.137-.20696.0196-.03633.0369-.07374.052-.11203.0156-.03806.029-.07694.0401-.11645.0112-.03988.0211-.07975.0283-.12026.0073-.0405.0119-.08101.0152-.12215 0-.02911.0033-.05759.0033-.08671 0-.04114 0-.08228-.0066-.12278-.004-.04082-.0104-.08139-.0191-.12152-.0084-.0422-.0189-.08207-.0316-.11962-.0377-.11762-.0934-.22919-.1652-.33101-.0238-.03405-.0495-.0668-.0771-.0981-.027-.03102-.0559-.0633-.0862-.08988s-.0625-.0557-.0955-.08101c-.0329-.02532-.0658-.04937-.1033-.07152s-.0724-.04241-.1106-.06329c-.0377-.01859-.0764-.03528-.1159-.05-.0395-.01519-.0796-.02785-.1204-.03924-.0409-.0114-.0823-.01962-.1238-.02658-.0418-.00703-.084-.01189-.1264-.01456-.0303 0-.0599-.00317-.0902-.00317z"/><path d="m9.55599-.0169991c-.58063 0-1.09872-.0000003-1.56414.00759466l-1.25079.03227714c-.36996.0158228-.69648.0354431-.98746.0632912-.1468.0126582-.28504.0272171-.41605.0430391-.131.015823-.24949.032911-.37326.053165-.12376.020253-.22975.039873-.33771.063291-.10796.023417-.21.046835-.30874.073418-.09875.026582-.19289.053796-.28768.084176-.0948.03038-.18433.063291-.27386.096835-.17972.068355-.35483.144937-.53586.231013-.13825.066455-.26333.133545-.3884.204431-.12093.070148-.23804.146198-.35088.227848-.11586.08418-.22843.17405-.33574.26835-.1073.09431-.22777.20697-.34693.32849-.15009.15126-.28044.29177-.39498.43037-.05793.06899-.11191.13798-.1626.20633-.05069.06836-.09875.13735-.14483.20823-.04608.07089-.08887.14114-.131662.21456-.04279.07342-.08163.15063-.118495.22785-.076364.15696-.147461.32595-.2179.51519-.052665.13924-.100063.28101-.141536.42405-.041473.14303-.079655.29936-.113229.46455s-.065831.34367-.088871.53988c-.027649.21603-.049593.43227-.065831.64873-.018433.23861-.034232.50063-.04674.79241l-.030282.97088-.016458 1.18291-.004608 1.42974.013825 2.0791.043448 1.576.032915.6152.041474.5101c.013166.1371.029623.274.049373.4108.017774.1215.037523.2278.058589.3164.042132.1899.092163.3722.150094.5557s.117837.3481.188934.5177.146144.3272.229091.4823c.082949.1551.172479.3032.268589.443.09556.1419.19884.2788.3094.4102.10972.1312.22662.2567.35022.3759.12403.1204.25456.2345.39104.3418.13868.1097.28285.2122.43251.3076.1389.0892.27583.1709.41407.2462.13825.0753.27715.1424.42066.2044s.29031.1171.4437.1671.31335.0949.48188.1342c.16853.0392.34825.074.53718.1044s.39498.0563.60762.0785c.21263.0221.44699.0405.69451.0563s.51282.0279.79721.0374c.43975.0158 1.1053.0246 1.87223.0278l2.48447-.0051 2.3521-.0316.8947-.024.5826-.0285c.125-.0102.2475-.0215.366-.0355.1185-.0139.2343-.0285.3476-.0462.1132-.0177.2244-.0373.3331-.0595.1086-.0221.2152-.0455.3219-.0721.1066-.0266.2087-.0551.312-.0861.1034-.031.2047-.0633.3055-.1006.1007-.0374.2027-.0747.3028-.1159.1-.0411.2008-.0848.3015-.1316.1547-.0715.2791-.1316.3884-.1899.1031-.054.2023-.1147.2969-.1816.102-.0735.1998-.1523.2929-.2361.1073-.0943.2285-.2089.3786-.3532.1316-.1265.2429-.2367.339-.3373s.1771-.1899.2475-.2772c.0679-.0824.131-.1684.1889-.2576.0567-.0867.1087-.1766.162-.2766.0796-.1506.1507-.2899.2146-.4247s.1185-.2614.1698-.3949c.0514-.1336.0935-.2677.1317-.4051.0382-.1373.0704-.2892.0981-.4525.0276-.1633.052-.3405.0724-.5386s.0382-.4171.054-.6633l.0408-.8228.0349-1.0272.025-1.1443.0092-1.1968-.0224-2.35068-.0296-1.05253-.0408-.9038-.0507-.70506c-.0184-.1962-.0382-.35063-.0599-.45506-.0233-.11519-.0494-.22996-.0783-.34431-.0277-.11075-.0586-.22152-.0922-.33101s-.0658-.21329-.1073-.31645c-.0415-.10317-.0783-.2057-.1205-.30507-.0421-.09936-.0875-.1962-.1349-.29177s-.0974-.18987-.1495-.27848c-.052-.08861-.1066-.17911-.1639-.26519-.0572-.08608-.1158-.17025-.1777-.25316-.0619-.08292-.1251-.1614-.1916-.23925-.0665-.07784-.1349-.15189-.206-.22531s-.1449-.14367-.2206-.21203c-.0757-.06835-.154-.13544-.2343-.19936-.0803-.06393-.1639-.12659-.2482-.18545s-.1738-.11772-.2633-.17278c-.0896-.055065-.183-.108863-.2772-.158863-.0941-.05-.1922-.1-.2909-.146202-.1633-.07595-.3141-.143671-.4609-.203798s-.2942-.112657-.445-.158859c-.159-.04801-.3205-.08794-.4838-.119622-.1738-.033544-.3634-.06329-.578-.086075-.2146-.022784-.4543-.0436704-.7281-.0632907-.2739-.0196202-.5826-.0284826-.9342-.0392421l-1.1961-.02531607-1.5141-.01708791-1.93872-.01202542zm1.00651 1.7683591 2.7959.01518 1.0533.01962c.2903.00823.5121.01709.6425.02785.1692.01393.3291.03102.4845.05127.1553.02025.2949.0443.441.07342.1462.02911.2746.06012.4029.09683.1284.03671.2502.07658.368.12152.1152.04394.2279.09359.3377.14873.1075.05366.2119.11281.3127.17722.1001.06371.1971.1327.291.20696.0935.07469.185.1538.2739.23924.0915.0874.1783.1793.26.27532.0794.09398.1528.19247.2199.29494.0682.10353.1296.21113.1836.32215.0571.11713.107.23738.1495.36012.0447.12659.0849.26203.1198.40633.0349.14431.0658.3076.0928.46266s.0494.33988.0691.52785c.0198.18797.0356.38861.0487.60316.0106.17216.0198.39874.0277.66709l.0197.91393.0145 2.23865-.0145 2.2367-.0204.9114-.0276.6632c-.0198.3102-.0402.5697-.0658.7981-.0126.1133-.0257.2184-.0402.3165s-.0309.1861-.0494.2785c-.0184.0924-.0382.1677-.0605.2531-.0224.0855-.0468.1576-.0744.2349-.0277.0772-.058.155-.0902.2316-.0323.0766-.0705.1601-.1086.2386-.0382.0785-.0698.1393-.1073.2057-.0376.0665-.0771.131-.1192.1943s-.0849.1266-.1317.1829c-.0467.0563-.0921.1165-.1422.1715-.05.0551-.1007.1095-.154.1608s-.1093.1019-.1665.15c-.0573.0481-.1172.0949-.1791.1392s-.1257.0874-.1916.1266c-.0658.0393-.1316.0804-.204.1177-.0725.0374-.1429.0735-.2173.1076-.0744.0342-.1534.0671-.2311.0975-.0776.0304-.1619.0633-.2442.0874-.1672.0544-.3427.1025-.5266.1443-.1929.043-.3884.0778-.5853.105-.075.0108-.2488.0209-.4977.0298l-.9479.0253-2.6879.0342-2.81359.0038-1.10464-.0114-.71755-.0216-.52665-.0354c-.16392-.0133-.31664-.0278-.46081-.0449s-.27649-.0355-.40223-.0564c-.12573-.0209-.23699-.0436-.35417-.0709-.10664-.0253-.21263-.0544-.31664-.0873-.10402-.0329-.1975-.0677-.29098-.1063-.09347-.0386-.18432-.0817-.27451-.1266s-.18235-.0987-.27188-.1551c-.06583-.0417-.13166-.0835-.19749-.1266-.06583-.043-.12442-.0886-.18367-.1354s-.1152-.0943-.16984-.1437c-.05464-.0493-.10731-.1006-.15668-.1538-.04937-.0531-.09809-.1063-.14417-.1626s-.09019-.1139-.13166-.1734-.08229-.1222-.12047-.1855-.07439-.1266-.10862-.1974c-.03423-.0709-.06583-.1393-.09809-.2108s-.05991-.1468-.08756-.2247c-.05687-.1623-.10521-.3273-.14482-.4943-.04148-.1759-.07702-.362-.10731-.5608-.03028-.1987-.05464-.4094-.07439-.6329-.01448-.1645-.02567-.4215-.03423-.7455l-.01843-1.1532.00724-2.93797.05201-2.8076.04015-.98924.02305-.32721c.00461-.06366.01274-.12704.02435-.18988.02765-.12658.0553-.24683.08427-.35822.02896-.1114.05661-.20887.08887-.31266.03225-.1038.06583-.18988.0994-.27532s.07176-.16646.11323-.24747.08426-.15316.13166-.22658.09875-.14367.15405-.21456c.05529-.07088.11586-.13987.18103-.21076.06517-.07088.13561-.14177.21198-.21519.08777-.08439.18037-.16687.2778-.24746.09743-.0806.19201-.15022.28373-.20887.09581-.06353.19538-.12165.29821-.17405.10493-.05336.21284-.10111.32323-.14303.11235-.0422.23107-.08059.35615-.11519.13166-.03608.26332-.0633.39959-.09114.13627-.02785.29097-.05.45094-.07026.15997-.02025.32915-.03734.51282-.05253.12705-.01076.34627-.02025.63461-.02785l1.04934-.02025 2.79127-.01645z"/></g></svg>