<svg width="21" height="20" viewBox="0 0 21 20" fill="none" xmlns="http://www.w3.org/2000/svg"><g clip-path="url(#clip0_2086_48)"><path d="M10.5685 4.88672C10.3866 4.88662 10.2049 4.8955 10.024 4.9133C9.84722 4.93083 9.67144 4.95702 9.4974 4.99178C9.32448 5.02596 9.1542 5.06815 8.98655 5.11837L8.49216 5.29115L8.03135 5.50634L7.59094 5.76394L7.17555 6.0614L6.79768 6.39242L6.45141 6.75697L6.14398 7.15191L5.87605 7.57469L5.65091 8.0228C5.58258 8.17674 5.52238 8.3339 5.47053 8.49368C5.41816 8.65497 5.37422 8.81868 5.33887 8.98419C5.30265 9.15151 5.2754 9.32051 5.25724 9.49052C5.20152 10.0092 5.22905 10.533 5.33887 11.0437C5.40916 11.3734 5.51369 11.6955 5.65091 12.0051L5.87605 12.4532L6.14398 12.876L6.45141 13.2722L6.79702 13.6367L7.17621 13.9677L7.58765 14.2639L8.02806 14.5215L8.49414 14.738L8.98392 14.9108L9.49476 15.0374C10.0264 15.1425 10.5716 15.1689 11.1116 15.1158C11.2884 15.0982 11.4641 15.072 11.6382 15.0374L12.1491 14.9108L12.6388 14.738L13.1056 14.5215L13.546 14.2639L13.9568 13.9677L14.3366 13.6367L14.6816 13.2722L14.9897 12.8772L15.2576 12.4544L15.4834 12.0063L15.6638 11.5355C15.7161 11.3742 15.7601 11.2105 15.7954 11.0449L15.8771 10.5386C15.8948 10.3671 15.9047 10.1924 15.9047 10.0165C15.9047 9.84052 15.8948 9.66583 15.8771 9.49368C15.8587 9.3237 15.8315 9.15471 15.7954 8.98735C15.7602 8.82182 15.7162 8.65811 15.6638 8.49685L15.4834 8.02596L15.2576 7.57786L14.9923 7.15191L14.6842 6.75697L14.3392 6.39242L13.9594 6.06077L13.5486 5.7652L13.1082 5.50634L12.6395 5.29115L12.1497 5.11837L11.6389 4.99178L11.1122 4.91394C10.9316 4.89621 10.7501 4.88734 10.5685 4.88735V4.88672ZM10.5685 6.65887C10.6883 6.6588 10.808 6.66451 10.9272 6.67596L11.2755 6.72659L11.6112 6.80887L11.9331 6.9209L12.2386 7.06204L12.5263 7.22913L12.7949 7.42216L13.043 7.63799L13.2682 7.87659L13.4657 8.13482L13.6401 8.4114L13.7869 8.70508C13.8308 8.80592 13.8699 8.90908 13.9041 9.01457C13.9377 9.11963 13.9666 9.22723 13.9897 9.33735C14.0127 9.44748 14.0298 9.55824 14.0423 9.67153L14.0601 10.0165C14.0601 10.1336 14.0542 10.2481 14.0423 10.362C14.0305 10.476 14.0127 10.5867 13.9897 10.6962C13.9666 10.8057 13.9377 10.9139 13.9041 11.019L13.7896 11.3291L13.6428 11.6228L13.4683 11.8987L13.2708 12.157L13.0457 12.3956L12.7975 12.6114L12.5289 12.8013L12.2412 12.9684L11.9358 13.1095L11.6139 13.2215L11.2781 13.3038L10.9279 13.3544C10.8087 13.3658 10.6889 13.3715 10.5691 13.3715C10.4493 13.3715 10.3288 13.3658 10.2097 13.3544L9.8621 13.3038C9.74857 13.282 9.63629 13.2545 9.5257 13.2215L9.20445 13.1095L8.89834 12.9684L8.61066 12.8013L8.34207 12.6114L8.09389 12.3956L7.86875 12.157L7.67125 11.8987L7.4968 11.6222L7.34671 11.3291L7.22953 11.0196L7.14395 10.6968L7.09128 10.3627C7.07943 10.2483 7.07351 10.1331 7.07351 10.0171C7.07351 9.90191 7.07943 9.78672 7.09128 9.67216C7.10313 9.55761 7.12091 9.44748 7.14395 9.33799C7.16703 9.22907 7.19581 9.12133 7.23019 9.0152L7.34671 8.70571L7.49351 8.41204L7.66796 8.13546L7.86545 7.87723L8.08994 7.63925L8.33812 7.4228L8.60671 7.23292L8.89439 7.0652L9.2005 6.92406C9.30583 6.88187 9.41291 6.84453 9.52175 6.81204L9.85815 6.72976C9.97204 6.70761 10.0886 6.69052 10.2057 6.67913C10.3229 6.66773 10.4454 6.66204 10.5652 6.66204L10.5685 6.65887Z" fill="white"/><path d="M16.1233 3.42837C16.0811 3.42837 16.039 3.42837 15.9962 3.43406C15.9534 3.43976 15.9126 3.44419 15.8711 3.45242C15.8297 3.46064 15.7882 3.47077 15.748 3.4828C15.7079 3.49482 15.6677 3.50938 15.6282 3.5252C15.5887 3.54103 15.5512 3.55938 15.5137 3.579C15.4761 3.59862 15.4406 3.62014 15.4057 3.64229C15.3708 3.66444 15.3366 3.69039 15.3043 3.71698C15.2721 3.74356 15.2385 3.7714 15.2115 3.80052C15.1845 3.82963 15.1542 3.86065 15.1279 3.89292C15.1016 3.9252 15.0765 3.95621 15.0535 3.99292C15.0296 4.02745 15.0077 4.06315 14.9877 4.09989C14.9686 4.13596 14.9515 4.17394 14.9357 4.21191C14.9199 4.24989 14.9074 4.28913 14.8955 4.32837C14.8837 4.36761 14.8751 4.40811 14.8679 4.44862C14.8606 4.48913 14.856 4.52963 14.8527 4.57077C14.8527 4.59989 14.8527 4.62837 14.8527 4.65748C14.8529 4.73974 14.8615 4.82178 14.8784 4.90242C14.8865 4.94259 14.8968 4.98231 14.9093 5.0214C14.9217 5.0606 14.9364 5.09906 14.9534 5.1366C14.9697 5.17446 14.9882 5.21144 15.0087 5.24735C15.0286 5.28352 15.0506 5.3186 15.0746 5.35242C15.0989 5.3866 15.1246 5.41887 15.1516 5.45052C15.1786 5.48216 15.2082 5.51381 15.2385 5.54039C15.2687 5.56905 15.3006 5.5961 15.3339 5.62141C15.367 5.64708 15.4015 5.67095 15.4373 5.69292C15.4728 5.71585 15.5095 5.73698 15.5472 5.75622C15.5854 5.77457 15.6243 5.79166 15.6638 5.80621C15.7033 5.82077 15.7434 5.83406 15.7842 5.84545C15.825 5.85685 15.8665 5.86508 15.908 5.87204C15.9495 5.879 15.9923 5.88406 16.0344 5.88723C16.064 5.88723 16.0943 5.89039 16.1239 5.89039C16.1667 5.89039 16.2088 5.89039 16.251 5.88406C16.2931 5.87773 16.3352 5.87394 16.3767 5.86571C16.4182 5.85748 16.4597 5.84736 16.4998 5.83533C16.5403 5.82318 16.58 5.80903 16.619 5.79292C16.6974 5.76123 16.7722 5.72178 16.8421 5.6752C16.877 5.65179 16.908 5.6271 16.9435 5.60052C16.976 5.57434 17.007 5.54645 17.0363 5.51698C17.0659 5.48766 17.0938 5.45681 17.1199 5.42457C17.1726 5.36015 17.2185 5.29082 17.2569 5.21761C17.2765 5.18128 17.2938 5.14387 17.3089 5.10558C17.3245 5.06752 17.3379 5.02864 17.349 4.98913C17.3602 4.94925 17.3701 4.90938 17.3773 4.86887C17.3846 4.82837 17.3892 4.78786 17.3925 4.74672C17.3925 4.71761 17.3958 4.68913 17.3958 4.66001C17.3958 4.61887 17.3958 4.57773 17.3892 4.53723C17.3852 4.49641 17.3788 4.45584 17.3701 4.41571C17.3617 4.37351 17.3512 4.33364 17.3385 4.29609C17.3008 4.17847 17.2451 4.0669 17.1733 3.96508C17.1495 3.93103 17.1238 3.89828 17.0962 3.86698C17.0692 3.83596 17.0403 3.80368 17.01 3.7771C16.9797 3.75052 16.9475 3.7214 16.9145 3.69609C16.8816 3.67077 16.8487 3.64672 16.8112 3.62457C16.7737 3.60242 16.7388 3.58216 16.7006 3.56128C16.6629 3.54269 16.6242 3.526 16.5847 3.51128C16.5452 3.49609 16.5051 3.48343 16.4643 3.47204C16.4234 3.46064 16.382 3.45242 16.3405 3.44546C16.2987 3.43843 16.2565 3.43357 16.2141 3.4309C16.1838 3.4309 16.1542 3.42773 16.1239 3.42773L16.1233 3.42837Z" fill="white"/><path d="M9.55599 -0.0169991C8.97536 -0.0169991 8.45727 -0.0169994 7.99185 -0.00940444L6.74106 0.0228727C6.3711 0.0386955 6.04458 0.0583158 5.7536 0.0861639C5.6068 0.0988221 5.46856 0.113381 5.33755 0.129203C5.20655 0.145026 5.08806 0.162114 4.96429 0.182368C4.84053 0.202621 4.73454 0.222241 4.62658 0.245659C4.51862 0.269076 4.41658 0.292494 4.31784 0.319077C4.21909 0.345659 4.12495 0.372873 4.03016 0.403253C3.93536 0.433633 3.84583 0.466544 3.7563 0.500088C3.57658 0.568443 3.40147 0.645025 3.22044 0.731101C3.08219 0.797556 2.95711 0.864646 2.83204 0.935532C2.71111 1.00568 2.594 1.08173 2.48116 1.16338C2.3653 1.24756 2.25273 1.33743 2.14542 1.43173C2.03812 1.52604 1.91765 1.6387 1.79849 1.76022C1.6484 1.91148 1.51805 2.05199 1.40351 2.19059C1.34558 2.25958 1.2916 2.32857 1.24091 2.39692C1.19022 2.46528 1.14216 2.53427 1.09608 2.60515C1.05 2.67604 1.00721 2.74629 0.964418 2.81971C0.921628 2.89313 0.882788 2.97034 0.845923 3.04756C0.769559 3.20452 0.698462 3.37351 0.628023 3.56275C0.575358 3.70199 0.52796 3.84376 0.486487 3.9868C0.445014 4.12983 0.406832 4.28616 0.373258 4.45135C0.339684 4.61654 0.307427 4.79502 0.284387 4.99123C0.256738 5.20726 0.234794 5.4235 0.218556 5.63996C0.200123 5.87857 0.184324 6.14059 0.171816 6.43237L0.141534 7.40325L0.125076 8.58616L0.120468 10.0159L0.134293 12.095L0.177741 13.671L0.210656 14.2862L0.25213 14.7963C0.265296 14.9334 0.281753 15.0703 0.301503 15.2071C0.319277 15.3286 0.339026 15.4349 0.360092 15.5235C0.402224 15.7134 0.452255 15.8957 0.510186 16.0792C0.568117 16.2627 0.628023 16.4273 0.69912 16.5969C0.770217 16.7665 0.845264 16.9241 0.928211 17.0792C1.01116 17.2343 1.10069 17.3824 1.1968 17.5222C1.29236 17.6641 1.39564 17.801 1.5062 17.9324C1.61592 18.0636 1.73282 18.1891 1.85642 18.3083C1.98045 18.4287 2.11098 18.5428 2.24746 18.6501C2.38614 18.7598 2.53031 18.8623 2.67997 18.9577C2.81887 19.0469 2.9558 19.1286 3.09404 19.2039C3.23229 19.2792 3.37119 19.3463 3.5147 19.4083C3.65821 19.4703 3.80501 19.5254 3.9584 19.5754C4.11179 19.6254 4.27175 19.6703 4.44028 19.7096C4.60881 19.7488 4.78853 19.7836 4.97746 19.814C5.16639 19.8444 5.37244 19.8703 5.58508 19.8925C5.79771 19.9146 6.03207 19.933 6.27959 19.9488C6.52711 19.9646 6.79241 19.9767 7.0768 19.9862C7.51655 20.002 8.1821 20.0108 8.94903 20.014L11.4335 20.0089L13.7856 19.9773L14.6803 19.9533L15.2629 19.9248C15.3879 19.9146 15.5104 19.9033 15.6289 19.8893C15.7474 19.8754 15.8632 19.8608 15.9765 19.8431C16.0897 19.8254 16.2009 19.8058 16.3096 19.7836C16.4182 19.7615 16.5248 19.7381 16.6315 19.7115C16.7381 19.6849 16.8402 19.6564 16.9435 19.6254C17.0469 19.5944 17.1482 19.5621 17.249 19.5248C17.3497 19.4874 17.4517 19.4501 17.5518 19.4089C17.6518 19.3678 17.7526 19.3241 17.8533 19.2773C18.008 19.2058 18.1324 19.1457 18.2417 19.0874C18.3448 19.0334 18.444 18.9727 18.5386 18.9058C18.6406 18.8323 18.7384 18.7535 18.8315 18.6697C18.9388 18.5754 19.06 18.4608 19.2101 18.3165C19.3417 18.19 19.453 18.0798 19.5491 17.9792C19.6452 17.8786 19.7262 17.7893 19.7966 17.702C19.8645 17.6196 19.9276 17.5336 19.9855 17.4444C20.0422 17.3577 20.0942 17.2678 20.1475 17.1678C20.2271 17.0172 20.2982 16.8779 20.3621 16.7431C20.426 16.6083 20.4806 16.4817 20.5319 16.3482C20.5833 16.2146 20.6254 16.0805 20.6636 15.9431C20.7018 15.8058 20.734 15.6539 20.7617 15.4906C20.7893 15.3273 20.8137 15.1501 20.8341 14.952C20.8545 14.7539 20.8723 14.5349 20.8881 14.2887L20.9289 13.4659L20.9638 12.4387L20.9888 11.2944L20.998 10.0976L20.9756 7.74692L20.946 6.69439L20.9052 5.79059L20.8545 5.08553C20.8361 4.88933 20.8163 4.7349 20.7946 4.63047C20.7713 4.51528 20.7452 4.40051 20.7163 4.28616C20.6886 4.17541 20.6577 4.06464 20.6241 3.95515C20.5905 3.84566 20.5583 3.74186 20.5168 3.6387C20.4753 3.53553 20.4385 3.433 20.3963 3.33363C20.3542 3.23427 20.3088 3.13743 20.2614 3.04186C20.214 2.94629 20.164 2.85199 20.1119 2.76338C20.0599 2.67477 20.0053 2.58427 19.948 2.49819C19.8908 2.41211 19.8322 2.32794 19.7703 2.24503C19.7084 2.16211 19.6452 2.08363 19.5787 2.00578C19.5122 1.92794 19.4438 1.85389 19.3727 1.78047C19.3016 1.70705 19.2278 1.6368 19.1521 1.56844C19.0764 1.50009 18.9981 1.433 18.9178 1.36908C18.8375 1.30515 18.7539 1.24249 18.6696 1.18363C18.5853 1.12477 18.4958 1.06591 18.4063 1.01085C18.3167 0.955785 18.2233 0.901987 18.1291 0.851987C18.035 0.801987 17.9369 0.751987 17.8382 0.705785C17.6749 0.629835 17.5241 0.562114 17.3773 0.501987C17.2305 0.44186 17.0831 0.38933 16.9323 0.343128C16.7733 0.295118 16.6118 0.255188 16.4485 0.223506C16.2747 0.189962 16.0851 0.160216 15.8705 0.137431C15.6559 0.114647 15.4162 0.0937606 15.1424 0.0741403C14.8685 0.0545201 14.5598 0.0456577 14.2082 0.0348982L13.0121 0.00958213L11.498 -0.00750578L9.55928 -0.0195312L9.55599 -0.0169991ZM10.5625 1.75136L13.3584 1.76654L14.4117 1.78616C14.702 1.79439 14.9238 1.80325 15.0542 1.81401C15.2234 1.82794 15.3833 1.84503 15.5387 1.86528C15.694 1.88553 15.8336 1.90958 15.9797 1.9387C16.1259 1.96781 16.2543 1.99882 16.3826 2.03553C16.511 2.07224 16.6328 2.11211 16.7506 2.15705C16.8658 2.20099 16.9785 2.25064 17.0883 2.30578C17.1958 2.35944 17.3002 2.41859 17.401 2.483C17.5011 2.54671 17.5981 2.6157 17.692 2.68996C17.7855 2.76465 17.877 2.84376 17.9659 2.9292C18.0574 3.0166 18.1442 3.1085 18.2259 3.20452C18.3053 3.2985 18.3787 3.39699 18.4458 3.49946C18.514 3.60299 18.5754 3.71059 18.6294 3.82161C18.6865 3.93874 18.7364 4.05899 18.7789 4.18173C18.8236 4.30832 18.8638 4.44376 18.8987 4.58806C18.9336 4.73237 18.9645 4.89566 18.9915 5.05072C19.0185 5.20578 19.0409 5.3906 19.0606 5.57857C19.0804 5.76654 19.0962 5.96718 19.1093 6.18173C19.1199 6.35389 19.1291 6.58047 19.137 6.84882L19.1567 7.76275L19.1712 10.0014L19.1567 12.2381L19.1363 13.1495L19.1087 13.8127C19.0889 14.1229 19.0685 14.3824 19.0429 14.6108C19.0303 14.7241 19.0172 14.8292 19.0027 14.9273C18.9882 15.0254 18.9718 15.1134 18.9533 15.2058C18.9349 15.2982 18.9151 15.3735 18.8928 15.4589C18.8704 15.5444 18.846 15.6165 18.8184 15.6938C18.7907 15.771 18.7604 15.8488 18.7282 15.9254C18.6959 16.002 18.6577 16.0855 18.6196 16.164C18.5814 16.2425 18.5498 16.3033 18.5123 16.3697C18.4747 16.4362 18.4352 16.5007 18.3931 16.564C18.351 16.6273 18.3082 16.6906 18.2614 16.7469C18.2147 16.8032 18.1693 16.8634 18.1192 16.9184C18.0692 16.9735 18.0185 17.0279 17.9652 17.0792C17.9119 17.1305 17.8559 17.1811 17.7987 17.2292C17.7414 17.2773 17.6815 17.3241 17.6196 17.3684C17.5577 17.4127 17.4939 17.4558 17.428 17.495C17.3622 17.5343 17.2964 17.5754 17.224 17.6127C17.1515 17.6501 17.0811 17.6862 17.0067 17.7203C16.9323 17.7545 16.8533 17.7874 16.7756 17.8178C16.698 17.8482 16.6137 17.8811 16.5314 17.9052C16.3642 17.9596 16.1887 18.0077 16.0048 18.0495C15.8119 18.0925 15.6164 18.1273 15.4195 18.1545C15.3445 18.1653 15.1707 18.1754 14.9218 18.1843L13.9739 18.2096L11.286 18.2438L8.47241 18.2476L7.36777 18.2362L6.65022 18.2146L6.12357 18.1792C5.95965 18.1659 5.80693 18.1514 5.66276 18.1343C5.51859 18.1172 5.38627 18.0988 5.26053 18.0779C5.1348 18.057 5.02354 18.0343 4.90636 18.007C4.79972 17.9817 4.69373 17.9526 4.58972 17.9197C4.4857 17.8868 4.39222 17.852 4.29874 17.8134C4.20527 17.7748 4.11442 17.7317 4.02423 17.6868C3.93404 17.6419 3.84188 17.5881 3.75235 17.5317C3.68652 17.49 3.62069 17.4482 3.55486 17.4051C3.48903 17.3621 3.43044 17.3165 3.37119 17.2697C3.31194 17.2229 3.25599 17.1754 3.20135 17.126C3.14671 17.0767 3.09404 17.0254 3.04467 16.9722C2.9953 16.9191 2.94658 16.8659 2.9005 16.8096C2.85442 16.7533 2.81031 16.6957 2.76884 16.6362C2.72737 16.5767 2.68655 16.514 2.64837 16.4507C2.61019 16.3874 2.57398 16.3241 2.53975 16.2533C2.50552 16.1824 2.47392 16.114 2.44166 16.0425C2.4094 15.971 2.38175 15.8957 2.3541 15.8178C2.29723 15.6555 2.24889 15.4905 2.20928 15.3235C2.1678 15.1476 2.13226 14.9615 2.10197 14.7627C2.07169 14.564 2.04733 14.3533 2.02758 14.1298C2.0131 13.9653 2.00191 13.7083 1.99335 13.3843L1.97492 12.2311L1.98216 9.29313L2.03417 6.48553L2.07432 5.49629L2.09737 5.16908C2.10198 5.10542 2.11011 5.04204 2.12172 4.9792C2.14937 4.85262 2.17702 4.73237 2.20599 4.62098C2.23495 4.50958 2.2626 4.41211 2.29486 4.30832C2.32711 4.20452 2.36069 4.11844 2.39426 4.033C2.42783 3.94756 2.46602 3.86654 2.50749 3.78553C2.54896 3.70452 2.59175 3.63237 2.63915 3.55895C2.68655 3.48553 2.7379 3.41528 2.7932 3.34439C2.84849 3.27351 2.90906 3.20452 2.97423 3.13363C3.0394 3.06275 3.10984 2.99186 3.18621 2.91844C3.27398 2.83405 3.36658 2.75157 3.46401 2.67098C3.56144 2.59038 3.65602 2.52076 3.74774 2.46211C3.84355 2.39858 3.94312 2.34046 4.04595 2.28806C4.15088 2.2347 4.25879 2.18695 4.36918 2.14503C4.48153 2.10283 4.60025 2.06444 4.72533 2.02984C4.85699 1.99376 4.98865 1.96654 5.12492 1.9387C5.26119 1.91085 5.41589 1.8887 5.57586 1.86844C5.73583 1.84819 5.90501 1.8311 6.08868 1.81591C6.21573 1.80515 6.43495 1.79566 6.72329 1.78806L7.77263 1.76781L10.5639 1.75136H10.5625Z" fill="white"/></g><defs><clipPath id="clip0_2086_48"><rect width="21" height="20" fill="white"/></clipPath></defs></svg>
