<svg fill="none" height="20" viewBox="0 0 21 20" width="21" xmlns="http://www.w3.org/2000/svg" xmlns:xlink="http://www.w3.org/1999/xlink"><clipPath id="a"><path d="m0 0h21v20h-21z"/></clipPath><g clip-path="url(#a)"><path d="m18.667 0c1.2885.00016786 2.333.99546 2.333 2.22266v15.55464c0 1.2272-1.0445 2.2225-2.333 2.2227h-16.33399c-1.28852-.0002-2.33301-.9955-2.33301-2.2227v-15.55464c0-1.2272 1.04449-2.22249251 2.33301-2.22266zm-15.44923 17.2227h3.13184v-9.62993h-3.13184zm11.18553-9.92387c-2.1399 0-3.044 1.58233-3.0488 1.59082v-1.29688h-3.00294v9.62993h3.00294v-5.0557c.0001-1.3543.6553-2.1602 1.9082-2.1602 1.1514.0002 1.704.7746 1.7041 2.1602v5.0557h3.1162v-6.0977c-.0001-2.57935-1.5352-3.82614-3.6797-3.82617zm-9.63475-4.52051c-1.02292 0-1.85151.79512-1.85156 1.77637 0 .98129.82861 1.77734 1.85156 1.77734 1.02296 0 1.85157-.79605 1.85157-1.77734-.00005-.98125-.82864-1.77637-1.85157-1.77637z" fill="#fff"/></g></svg>